<svg width="50" height="50" viewBox="0 0 50 50" fill="none" xmlns="http://www.w3.org/2000/svg">
<path d="M25.0001 43.806C35.3863 43.806 43.806 35.3863 43.806 25.0001C43.806 14.6138 35.3863 6.19409 25.0001 6.19409C14.6138 6.19409 6.19409 14.6138 6.19409 25.0001C6.19409 35.3863 14.6138 43.806 25.0001 43.806Z" fill="#FBCA16"/>
<path d="M25 49C38.2548 49 49 38.2548 49 25C49 11.7452 38.2548 1 25 1C11.7452 1 1 11.7452 1 25C1 38.2548 11.7452 49 25 49Z" stroke="#FBCA16" stroke-miterlimit="10"/>
<path d="M46.1342 26.1605C46.7752 26.1605 47.2948 25.6409 47.2948 25C47.2948 24.359 46.7752 23.8394 46.1342 23.8394C45.4932 23.8394 44.9736 24.359 44.9736 25C44.9736 25.6409 45.4932 26.1605 46.1342 26.1605Z" fill="#FBCA16"/>
<path d="M3.86568 26.1605C4.50666 26.1605 5.02627 25.6409 5.02627 25C5.02627 24.359 4.50666 23.8394 3.86568 23.8394C3.2247 23.8394 2.70508 24.359 2.70508 25C2.70508 25.6409 3.2247 26.1605 3.86568 26.1605Z" fill="#FBCA16"/>
<path d="M26.5617 20.802V19.1255C26.5617 18.3088 27.1062 18.1154 27.4859 18.1154C27.8656 18.1154 29.8429 18.1154 29.8429 18.1154V14.519L26.5975 14.5046C23.0011 14.5046 22.1772 17.184 22.1772 18.9034V20.802H20.0996V25.0002H22.1987C22.1987 29.7572 22.1987 35.4957 22.1987 35.4957H26.3969C26.3969 35.4957 26.3969 29.6999 26.3969 25.0002H29.5133L29.893 20.802H26.5617Z" fill="white"/>
</svg>
