<svg width="48" height="48" viewBox="0 0 48 48" fill="none" xmlns="http://www.w3.org/2000/svg">
<g clip-path="url(#clip0_69_124)">
<path d="M24.0001 42.5295C34.2336 42.5295 42.5295 34.2336 42.5295 24.0001C42.5295 13.7666 34.2336 5.4707 24.0001 5.4707C13.7666 5.4707 5.4707 13.7666 5.4707 24.0001C5.4707 34.2336 13.7666 42.5295 24.0001 42.5295Z" fill="#2B4570"/>
<path d="M24.0001 47.6471C37.06 47.6471 47.6471 37.06 47.6471 24.0001C47.6471 10.9402 37.06 0.353027 24.0001 0.353027C10.9402 0.353027 0.353027 10.9402 0.353027 24.0001C0.353027 37.06 10.9402 47.6471 24.0001 47.6471Z" stroke="#2B4570" stroke-miterlimit="10"/>
<path d="M44.8235 25.1435C45.455 25.1435 45.967 24.6315 45.967 24C45.967 23.3684 45.455 22.8564 44.8235 22.8564C44.1919 22.8564 43.6799 23.3684 43.6799 24C43.6799 24.6315 44.1919 25.1435 44.8235 25.1435Z" fill="#2B4570"/>
<path d="M3.17649 25.1435C3.80804 25.1435 4.32002 24.6315 4.32002 24C4.32002 23.3684 3.80804 22.8564 3.17649 22.8564C2.54493 22.8564 2.03296 23.3684 2.03296 24C2.03296 24.6315 2.54493 25.1435 3.17649 25.1435Z" fill="#2B4570"/>
<path d="M20.7742 25.426H24.1554C23.5625 27.106 21.9531 28.306 20.0754 28.2919C17.7954 28.2778 15.9107 26.4496 15.8189 24.1696C15.7272 21.7272 17.6825 19.7084 20.1107 19.7084C21.2189 19.7084 22.2284 20.1319 22.9907 20.8237C23.1742 20.986 23.4495 20.986 23.626 20.8237L24.8684 19.659C25.0589 19.4754 25.066 19.1648 24.8684 18.9813C23.6613 17.8378 22.0378 17.1248 20.2519 17.0896C16.4401 17.0119 13.2213 20.139 13.1931 23.9578C13.1648 27.7978 16.2707 30.9248 20.1107 30.9248C23.8025 30.9248 26.8166 28.0378 27.0142 24.3954C27.0213 24.3531 27.0213 22.8072 27.0213 22.8072H20.7742C20.5201 22.8072 20.3084 23.0119 20.3084 23.2731V24.9743C20.3084 25.2213 20.5201 25.426 20.7742 25.426Z" fill="white"/>
<path d="M32.7459 22.9554V21.2966C32.7459 21.0707 32.5624 20.8872 32.3365 20.8872H30.9388C30.7129 20.8872 30.5294 21.0707 30.5294 21.2966V22.9554H28.8706C28.6447 22.9554 28.4612 23.139 28.4612 23.3649V24.7625C28.4612 24.9884 28.6447 25.1719 28.8706 25.1719H30.5294V26.8237C30.5294 27.0496 30.7129 27.2331 30.9388 27.2331H32.3365C32.5624 27.2331 32.7459 27.0496 32.7459 26.8237V25.1649H34.4047C34.6306 25.1649 34.8141 24.9813 34.8141 24.7554V23.3649C34.8141 23.139 34.6306 22.9554 34.4047 22.9554H32.7459Z" fill="white"/>
</g>
<defs>
<clipPath id="clip0_69_124">
<rect width="48" height="48" fill="white"/>
</clipPath>
</defs>
</svg>
