<svg width="50" height="50" viewBox="0 0 50 50" fill="none" xmlns="http://www.w3.org/2000/svg">
<path d="M25.0001 43.806C35.3863 43.806 43.806 35.3863 43.806 25.0001C43.806 14.6138 35.3863 6.19409 25.0001 6.19409C14.6138 6.19409 6.19409 14.6138 6.19409 25.0001C6.19409 35.3863 14.6138 43.806 25.0001 43.806Z" fill="#FBCA16"/>
<path d="M25 49C38.2548 49 49 38.2548 49 25C49 11.7452 38.2548 1 25 1C11.7452 1 1 11.7452 1 25C1 38.2548 11.7452 49 25 49Z" stroke="#FBCA16" stroke-miterlimit="10"/>
<path d="M46.1342 26.1605C46.7752 26.1605 47.2948 25.6409 47.2948 25C47.2948 24.359 46.7752 23.8394 46.1342 23.8394C45.4932 23.8394 44.9736 24.359 44.9736 25C44.9736 25.6409 45.4932 26.1605 46.1342 26.1605Z" fill="#FBCA16"/>
<path d="M3.86567 26.1605C4.50665 26.1605 5.02628 25.6409 5.02628 25C5.02628 24.359 4.50665 23.8394 3.86567 23.8394C3.22469 23.8394 2.70508 24.359 2.70508 25C2.70508 25.6409 3.22469 26.1605 3.86567 26.1605Z" fill="#FBCA16"/>
<path d="M25.0001 30.6807C28.1308 30.6807 30.6812 28.1303 30.6812 24.9996C30.6812 21.8688 28.1308 19.3184 25.0001 19.3184C21.8693 19.3184 19.3188 21.8688 19.3188 24.9996C19.3188 28.1303 21.8693 30.6807 25.0001 30.6807ZM20.6944 24.9996C20.6944 22.621 22.6287 20.6939 25.0001 20.6939C27.3714 20.6939 29.3057 22.6282 29.3057 24.9996C29.3057 27.3709 27.3714 29.3052 25.0001 29.3052C22.6287 29.3052 20.6944 27.3781 20.6944 24.9996Z" fill="white"/>
<path d="M30.6669 34.4422H19.3332C17.2054 34.4422 15.4717 32.7084 15.4717 30.5807V19.4189C15.4717 17.2911 17.2054 15.5574 19.3332 15.5574H30.6669C32.7947 15.5574 34.5284 17.2911 34.5284 19.4189V30.5807C34.5284 32.7084 32.7947 34.4422 30.6669 34.4422ZM19.3332 16.9687C17.9791 16.9687 16.883 18.0648 16.883 19.4189V30.5807C16.883 31.9347 17.9791 33.0308 19.3332 33.0308H30.6669C32.0209 33.0308 33.117 31.9347 33.117 30.5807V19.4189C33.117 18.0648 32.0209 16.9687 30.6669 16.9687H19.3332Z" fill="white"/>
</svg>
